<svg width="32" height="32" viewBox="0 0 32 32" fill="none" xmlns="http://www.w3.org/2000/svg">
<path d="M16.7709 10.1978L18.8335 12.2514C18.8112 12.4294 18.7635 12.6747 18.6635 12.9818C18.3855 13.8354 17.6872 15.216 15.9251 16.9781C14.171 18.7322 12.8061 19.3756 11.9762 19.611C11.6565 19.7017 11.4066 19.7346 11.2327 19.7445L9.22639 17.7382C8.44534 16.9572 7.17901 16.9572 6.39796 17.7382L3.56954 20.5667C2.78849 21.3477 2.78849 22.614 3.56954 23.3951L6.36479 26.1903C6.988 26.8136 7.94566 27.1384 8.90347 26.8321C10.5847 26.2943 14.5854 24.6357 19.1259 20.0953C23.6663 15.5548 25.3249 11.5541 25.8627 9.87285C26.1691 8.91504 25.8442 7.95737 25.221 7.33417L22.4257 4.53891C21.6447 3.75786 20.3783 3.75786 19.5973 4.53891L16.7689 7.36734C15.9878 8.14839 15.9878 9.41472 16.7689 10.1958L16.7709 10.1978Z" fill="#4F4F4F"/>
</svg>
