<svg width="54" height="46" viewBox="0 0 54 46" fill="none" xmlns="http://www.w3.org/2000/svg">
<rect width="54" height="46" rx="5" fill="#00C6BF"/>
<path d="M30.4996 25.0006H29.7096L29.4296 24.7306C30.6296 23.3306 31.2496 21.4206 30.9096 19.3906C30.4396 16.6106 28.1196 14.3906 25.3196 14.0506C21.0896 13.5306 17.5296 17.0906 18.0496 21.3206C18.3896 24.1206 20.6096 26.4406 23.3896 26.9106C25.4196 27.2506 27.3296 26.6306 28.7296 25.4306L28.9996 25.7106V26.5006L33.2496 30.7506C33.6596 31.1606 34.3296 31.1606 34.7396 30.7506C35.1496 30.3406 35.1496 29.6706 34.7396 29.2606L30.4996 25.0006ZM24.4996 25.0006C22.0096 25.0006 19.9996 22.9906 19.9996 20.5006C19.9996 18.0106 22.0096 16.0006 24.4996 16.0006C26.9896 16.0006 28.9996 18.0106 28.9996 20.5006C28.9996 22.9906 26.9896 25.0006 24.4996 25.0006Z" fill="white"/>
</svg>
