<svg width="18" height="18" viewBox="0 0 18 18" fill="none" xmlns="http://www.w3.org/2000/svg">
<rect width="18" height="18" rx="3.6" fill="#25D366"/>
<path d="M11.2462 9.99009C11.1112 9.94509 10.5262 9.63009 10.3912 9.58509C10.2562 9.54009 10.2112 9.54009 10.1212 9.63009C9.99736 9.80393 9.86206 9.9693 9.71619 10.1251C9.62619 10.2151 9.58119 10.2151 9.44619 10.1701C9.06999 10.0435 8.73023 9.82725 8.45619 9.54009C8.17719 9.30221 7.94782 9.01168 7.78119 8.68509C7.69119 8.55009 7.78119 8.50509 7.82619 8.41509C7.89689 8.34932 7.95754 8.27351 8.00619 8.19009C8.05119 8.10009 8.09619 8.05509 8.14119 7.96509C8.18619 7.87509 8.14119 7.83009 8.14119 7.74009C8.14119 7.65009 7.87119 7.06509 7.73619 6.84009C7.60119 6.61509 7.55619 6.61509 7.46619 6.61509H7.24119C7.12328 6.62035 7.01131 6.66834 6.92619 6.75009C6.77825 6.87773 6.66097 7.03705 6.58306 7.21624C6.50516 7.39542 6.46863 7.58985 6.47619 7.78509C6.51743 8.24513 6.68916 8.68382 6.97119 9.04959C7.48237 9.85946 8.21906 10.5023 9.09069 10.8991C9.40569 11.0341 9.63069 11.0791 9.81069 11.1691C10.0578 11.2484 10.321 11.2638 10.5757 11.2141C10.9191 11.1224 11.2208 10.916 11.4307 10.6291C11.4876 10.4392 11.5178 10.2423 11.5207 10.0441C11.4288 10.0449 11.3374 10.0297 11.2507 9.99909L11.2462 9.99009ZM8.99619 13.0501C8.24863 13.0591 7.5138 12.8563 6.87669 12.4651L6.74169 12.3751L5.16219 12.7801L5.57169 11.2501L5.48169 11.1151C5.07033 10.4515 4.85216 9.68634 4.85169 8.90559C4.8508 8.08462 5.09349 7.28183 5.54904 6.59884C6.0046 5.91585 6.65254 5.38337 7.41085 5.06878C8.16917 4.7542 9.00377 4.67165 9.80901 4.8316C10.6143 4.99155 11.354 5.38679 11.9345 5.96731C12.515 6.54783 12.9102 7.28752 13.0702 8.09277C13.2301 8.89802 13.1476 9.73261 12.833 10.4909C12.5184 11.2492 11.9859 11.8972 11.3029 12.3527C10.62 12.8083 9.81716 13.051 8.99619 13.0501ZM12.5107 5.43609C11.5658 4.5253 10.3085 4.01015 8.99619 3.99609C7.68337 3.99609 6.42431 4.51761 5.49601 5.44591C4.5677 6.37422 4.04619 7.63327 4.04619 8.94609C4.04597 9.81801 4.27903 10.6741 4.72119 11.4256L3.99219 14.0041L6.65169 13.3291C7.38402 13.7279 8.20745 13.9295 9.04119 13.9141C9.69123 13.9141 10.3349 13.7861 10.9355 13.5373C11.536 13.2885 12.0817 12.9239 12.5414 12.4643C13.001 12.0046 13.3656 11.4589 13.6144 10.8584C13.8632 10.2578 13.9912 9.61414 13.9912 8.96409C13.9593 7.64588 13.4267 6.38926 12.5017 5.44959" fill="#FBFBFD"/>
</svg>
