<svg width="16" height="26" viewBox="0 0 16 26" fill="none" xmlns="http://www.w3.org/2000/svg">
<path fill-rule="evenodd" clip-rule="evenodd" d="M1.65735 6.85657C0.650391 7.85757 0.650391 9.47823 0.650391 12.7136V13.2856C0.650391 16.521 0.650391 18.1417 1.65735 19.1426C2.65835 20.1496 4.27902 20.1496 7.51439 20.1496H8.08639C11.3218 20.1496 12.9424 20.1496 13.9434 19.1426C14.9504 18.1417 14.9504 16.521 14.9504 13.2856V12.7136C14.9504 9.47823 14.9504 7.85757 13.9434 6.85657C12.9424 5.84961 11.3218 5.84961 8.08639 5.84961H7.51439C4.27902 5.84961 2.65835 5.84961 1.65735 6.85657ZM3.06449 10.1994C3.14195 13.9174 5.00095 16.1517 8.26015 16.1517H8.44486V14.0246C9.01975 14.097 9.56048 14.3375 9.99929 14.7159C10.4381 15.0943 10.7555 15.5937 10.9116 16.1517H12.6038C12.4298 15.5093 12.1216 14.9111 11.6995 14.3965C11.2774 13.882 10.7509 13.4628 10.1549 13.1666C10.6889 12.8425 11.1502 12.4117 11.5101 11.9011C11.8699 11.3905 12.1205 10.8112 12.2463 10.1994H10.709C10.3754 11.3791 9.38628 12.4516 8.44486 12.5529V10.1994H6.90761V14.3225C5.95428 14.0842 4.7507 12.9283 4.69707 10.1994H3.06449Z" fill="#FBFBFD"/>
</svg>
