<svg width="16" height="26" viewBox="0 0 16 26" fill="none" xmlns="http://www.w3.org/2000/svg">
<path d="M11.0493 14.4295C10.8543 14.3645 10.0093 13.9095 9.81429 13.8445C9.61929 13.7795 9.55429 13.7795 9.42429 13.9095C9.24543 14.1606 9.04999 14.3994 8.83929 14.6245C8.70929 14.7545 8.64429 14.7545 8.44929 14.6895C7.90589 14.5066 7.41513 14.1943 7.01929 13.7795C6.6163 13.4359 6.28499 13.0162 6.04429 12.5445C5.91429 12.3495 6.04429 12.2845 6.10929 12.1545C6.21141 12.0595 6.29901 11.95 6.36929 11.8295C6.43429 11.6995 6.49929 11.6345 6.56429 11.5045C6.62929 11.3745 6.56429 11.3095 6.56429 11.1795C6.56429 11.0495 6.17429 10.2045 5.97929 9.87948C5.78429 9.55448 5.71929 9.55448 5.58929 9.55448H5.26429C5.09398 9.56208 4.93225 9.63139 4.80929 9.74948C4.5956 9.93384 4.4262 10.164 4.31367 10.4228C4.20114 10.6816 4.14837 10.9625 4.15929 11.2445C4.21885 11.909 4.46691 12.5426 4.87429 13.071C5.61266 14.2408 6.67677 15.1693 7.93579 15.7425C8.39079 15.9375 8.71579 16.0025 8.97579 16.1325C9.33275 16.247 9.71287 16.2693 10.0808 16.1975C10.5768 16.065 11.0126 15.7669 11.3158 15.3525C11.3979 15.0782 11.4417 14.7938 11.4458 14.5075C11.313 14.5086 11.181 14.4866 11.0558 14.4425L11.0493 14.4295ZM7.79929 18.8495C6.71948 18.8625 5.65807 18.5695 4.73779 18.0045L4.54279 17.8745L2.26129 18.4595L2.85279 16.2495L2.72279 16.0545C2.12861 15.096 1.81348 13.9907 1.81279 12.863C1.8115 11.6771 2.16206 10.5175 2.82008 9.53101C3.47811 8.54447 4.41402 7.77532 5.50936 7.32092C6.60471 6.86652 7.81024 6.74729 8.97337 6.97833C10.1365 7.20936 11.205 7.78027 12.0435 8.6188C12.882 9.45732 13.4529 10.5258 13.6839 11.6889C13.915 12.852 13.7958 14.0576 13.3414 15.1529C12.887 16.2483 12.1178 17.1842 11.1313 17.8422C10.1447 18.5002 8.98514 18.8508 7.79929 18.8495ZM12.8758 7.85148C11.511 6.5359 9.69485 5.79178 7.79929 5.77148C5.90299 5.77148 4.08436 6.52479 2.74348 7.86567C1.40259 9.20656 0.649289 11.0252 0.649289 12.9215C0.648972 14.1809 0.985611 15.4175 1.62429 16.503L0.571289 20.2275L4.41279 19.2525C5.4706 19.8285 6.66 20.1197 7.86429 20.0975C8.80324 20.0975 9.733 19.9125 10.6005 19.5532C11.468 19.1939 12.2562 18.6672 12.9201 18.0033C13.584 17.3394 14.1107 16.5511 14.47 15.6837C14.8293 14.8162 15.0143 13.8864 15.0143 12.9475C14.9682 11.0434 14.199 9.22829 12.8628 7.87098" fill="#FBFBFD"/>
</svg>
